<mxfile host="Electron" modified="2023-08-19T23:14:25.690Z" agent="Mozilla/5.0 (Windows NT 10.0; Win64; x64) AppleWebKit/537.36 (KHTML, like Gecko) draw.io/21.5.1 Chrome/112.0.5615.204 Electron/24.6.0 Safari/537.36" etag="INjvDOZCx4ZifqwVM1RI" version="21.5.1" type="device">
  <diagram name="Page-1" id="Rck_diRTb7xteAQt73CQ">
    <mxGraphModel dx="1584" dy="1690" grid="1" gridSize="10" guides="1" tooltips="1" connect="1" arrows="1" fold="1" page="1" pageScale="1" pageWidth="850" pageHeight="1100" math="0" shadow="0">
      <root>
        <mxCell id="0" />
        <mxCell id="1" parent="0" />
        <mxCell id="HZa0m9FP3mSwSl7YWpL0-22" style="edgeStyle=orthogonalEdgeStyle;rounded=0;orthogonalLoop=1;jettySize=auto;html=1;entryX=0;entryY=0.5;entryDx=0;entryDy=0;entryPerimeter=0;" parent="1" source="HZa0m9FP3mSwSl7YWpL0-17" target="HZa0m9FP3mSwSl7YWpL0-20" edge="1">
          <mxGeometry relative="1" as="geometry" />
        </mxCell>
        <mxCell id="HZa0m9FP3mSwSl7YWpL0-17" value="v1" style="outlineConnect=0;dashed=0;verticalLabelPosition=bottom;verticalAlign=top;align=center;html=1;shape=mxgraph.aws3.ec2;fillColor=#F58534;gradientColor=none;" parent="1" vertex="1">
          <mxGeometry x="250" y="320" width="76.5" height="93" as="geometry" />
        </mxCell>
        <mxCell id="HZa0m9FP3mSwSl7YWpL0-25" style="edgeStyle=orthogonalEdgeStyle;rounded=0;orthogonalLoop=1;jettySize=auto;html=1;" parent="1" source="HZa0m9FP3mSwSl7YWpL0-20" target="HZa0m9FP3mSwSl7YWpL0-24" edge="1">
          <mxGeometry relative="1" as="geometry" />
        </mxCell>
        <mxCell id="HZa0m9FP3mSwSl7YWpL0-20" value="v1" style="outlineConnect=0;dashed=0;verticalLabelPosition=bottom;verticalAlign=top;align=center;html=1;shape=mxgraph.aws3.ec2;fillColor=#a3a3a3;gradientColor=none;" parent="1" vertex="1">
          <mxGeometry x="423.5" y="320" width="76.5" height="93" as="geometry" />
        </mxCell>
        <mxCell id="HZa0m9FP3mSwSl7YWpL0-56" style="edgeStyle=orthogonalEdgeStyle;rounded=0;orthogonalLoop=1;jettySize=auto;html=1;entryX=0;entryY=0.5;entryDx=0;entryDy=0;entryPerimeter=0;" parent="1" source="HZa0m9FP3mSwSl7YWpL0-24" target="HZa0m9FP3mSwSl7YWpL0-49" edge="1">
          <mxGeometry relative="1" as="geometry" />
        </mxCell>
        <mxCell id="HZa0m9FP3mSwSl7YWpL0-24" value="v2" style="outlineConnect=0;dashed=0;verticalLabelPosition=bottom;verticalAlign=top;align=center;html=1;shape=mxgraph.aws3.ec2;fillColor=#33FF33;gradientColor=none;" parent="1" vertex="1">
          <mxGeometry x="600" y="320" width="76.5" height="93" as="geometry" />
        </mxCell>
        <mxCell id="HZa0m9FP3mSwSl7YWpL0-28" style="edgeStyle=orthogonalEdgeStyle;rounded=0;orthogonalLoop=1;jettySize=auto;html=1;entryX=0;entryY=0.5;entryDx=0;entryDy=0;entryPerimeter=0;" parent="1" source="HZa0m9FP3mSwSl7YWpL0-29" target="HZa0m9FP3mSwSl7YWpL0-31" edge="1">
          <mxGeometry relative="1" as="geometry" />
        </mxCell>
        <mxCell id="HZa0m9FP3mSwSl7YWpL0-29" value="v1" style="outlineConnect=0;dashed=0;verticalLabelPosition=bottom;verticalAlign=top;align=center;html=1;shape=mxgraph.aws3.ec2;fillColor=#F58534;gradientColor=none;" parent="1" vertex="1">
          <mxGeometry x="248.5" y="440" width="76.5" height="93" as="geometry" />
        </mxCell>
        <mxCell id="HZa0m9FP3mSwSl7YWpL0-30" style="edgeStyle=orthogonalEdgeStyle;rounded=0;orthogonalLoop=1;jettySize=auto;html=1;" parent="1" source="HZa0m9FP3mSwSl7YWpL0-31" target="HZa0m9FP3mSwSl7YWpL0-32" edge="1">
          <mxGeometry relative="1" as="geometry" />
        </mxCell>
        <mxCell id="HZa0m9FP3mSwSl7YWpL0-31" value="v1" style="outlineConnect=0;dashed=0;verticalLabelPosition=bottom;verticalAlign=top;align=center;html=1;shape=mxgraph.aws3.ec2;fillColor=#a3a3a3;gradientColor=none;" parent="1" vertex="1">
          <mxGeometry x="422" y="440" width="76.5" height="93" as="geometry" />
        </mxCell>
        <mxCell id="HZa0m9FP3mSwSl7YWpL0-57" style="edgeStyle=orthogonalEdgeStyle;rounded=0;orthogonalLoop=1;jettySize=auto;html=1;" parent="1" source="HZa0m9FP3mSwSl7YWpL0-32" target="HZa0m9FP3mSwSl7YWpL0-51" edge="1">
          <mxGeometry relative="1" as="geometry" />
        </mxCell>
        <mxCell id="HZa0m9FP3mSwSl7YWpL0-32" value="v2" style="outlineConnect=0;dashed=0;verticalLabelPosition=bottom;verticalAlign=top;align=center;html=1;shape=mxgraph.aws3.ec2;fillColor=#33FF33;gradientColor=none;" parent="1" vertex="1">
          <mxGeometry x="598.5" y="440" width="76.5" height="93" as="geometry" />
        </mxCell>
        <mxCell id="HZa0m9FP3mSwSl7YWpL0-33" style="edgeStyle=orthogonalEdgeStyle;rounded=0;orthogonalLoop=1;jettySize=auto;html=1;entryX=0;entryY=0.5;entryDx=0;entryDy=0;entryPerimeter=0;" parent="1" source="HZa0m9FP3mSwSl7YWpL0-34" target="HZa0m9FP3mSwSl7YWpL0-36" edge="1">
          <mxGeometry relative="1" as="geometry" />
        </mxCell>
        <mxCell id="HZa0m9FP3mSwSl7YWpL0-34" value="v1" style="outlineConnect=0;dashed=0;verticalLabelPosition=bottom;verticalAlign=top;align=center;html=1;shape=mxgraph.aws3.ec2;fillColor=#F58534;gradientColor=none;" parent="1" vertex="1">
          <mxGeometry x="251.75" y="560" width="76.5" height="93" as="geometry" />
        </mxCell>
        <mxCell id="HZa0m9FP3mSwSl7YWpL0-35" style="edgeStyle=orthogonalEdgeStyle;rounded=0;orthogonalLoop=1;jettySize=auto;html=1;" parent="1" source="HZa0m9FP3mSwSl7YWpL0-36" target="HZa0m9FP3mSwSl7YWpL0-37" edge="1">
          <mxGeometry relative="1" as="geometry" />
        </mxCell>
        <mxCell id="HZa0m9FP3mSwSl7YWpL0-36" value="v1" style="outlineConnect=0;dashed=0;verticalLabelPosition=bottom;verticalAlign=top;align=center;html=1;shape=mxgraph.aws3.ec2;fillColor=#F58534;gradientColor=none;" parent="1" vertex="1">
          <mxGeometry x="425.25" y="560" width="76.5" height="93" as="geometry" />
        </mxCell>
        <mxCell id="HZa0m9FP3mSwSl7YWpL0-58" style="edgeStyle=orthogonalEdgeStyle;rounded=0;orthogonalLoop=1;jettySize=auto;html=1;entryX=0;entryY=0.5;entryDx=0;entryDy=0;entryPerimeter=0;" parent="1" source="HZa0m9FP3mSwSl7YWpL0-37" target="HZa0m9FP3mSwSl7YWpL0-53" edge="1">
          <mxGeometry relative="1" as="geometry" />
        </mxCell>
        <mxCell id="HZa0m9FP3mSwSl7YWpL0-37" value="v1" style="outlineConnect=0;dashed=0;verticalLabelPosition=bottom;verticalAlign=top;align=center;html=1;shape=mxgraph.aws3.ec2;fillColor=#F58534;gradientColor=none;" parent="1" vertex="1">
          <mxGeometry x="601.75" y="560" width="76.5" height="93" as="geometry" />
        </mxCell>
        <mxCell id="HZa0m9FP3mSwSl7YWpL0-38" style="edgeStyle=orthogonalEdgeStyle;rounded=0;orthogonalLoop=1;jettySize=auto;html=1;entryX=0;entryY=0.5;entryDx=0;entryDy=0;entryPerimeter=0;" parent="1" source="HZa0m9FP3mSwSl7YWpL0-39" target="HZa0m9FP3mSwSl7YWpL0-41" edge="1">
          <mxGeometry relative="1" as="geometry" />
        </mxCell>
        <mxCell id="HZa0m9FP3mSwSl7YWpL0-39" value="v1" style="outlineConnect=0;dashed=0;verticalLabelPosition=bottom;verticalAlign=top;align=center;html=1;shape=mxgraph.aws3.ec2;fillColor=#F58534;gradientColor=none;" parent="1" vertex="1">
          <mxGeometry x="251.75" y="680" width="76.5" height="93" as="geometry" />
        </mxCell>
        <mxCell id="HZa0m9FP3mSwSl7YWpL0-40" style="edgeStyle=orthogonalEdgeStyle;rounded=0;orthogonalLoop=1;jettySize=auto;html=1;" parent="1" source="HZa0m9FP3mSwSl7YWpL0-41" target="HZa0m9FP3mSwSl7YWpL0-42" edge="1">
          <mxGeometry relative="1" as="geometry" />
        </mxCell>
        <mxCell id="HZa0m9FP3mSwSl7YWpL0-41" value="v1" style="outlineConnect=0;dashed=0;verticalLabelPosition=bottom;verticalAlign=top;align=center;html=1;shape=mxgraph.aws3.ec2;fillColor=#f58534;gradientColor=none;" parent="1" vertex="1">
          <mxGeometry x="425.25" y="680" width="76.5" height="93" as="geometry" />
        </mxCell>
        <mxCell id="HZa0m9FP3mSwSl7YWpL0-59" style="edgeStyle=orthogonalEdgeStyle;rounded=0;orthogonalLoop=1;jettySize=auto;html=1;entryX=0;entryY=0.5;entryDx=0;entryDy=0;entryPerimeter=0;" parent="1" source="HZa0m9FP3mSwSl7YWpL0-42" target="HZa0m9FP3mSwSl7YWpL0-55" edge="1">
          <mxGeometry relative="1" as="geometry" />
        </mxCell>
        <mxCell id="HZa0m9FP3mSwSl7YWpL0-42" value="v1" style="outlineConnect=0;dashed=0;verticalLabelPosition=bottom;verticalAlign=top;align=center;html=1;shape=mxgraph.aws3.ec2;fillColor=#f58534;gradientColor=none;" parent="1" vertex="1">
          <mxGeometry x="601.75" y="680" width="76.5" height="93" as="geometry" />
        </mxCell>
        <mxCell id="HZa0m9FP3mSwSl7YWpL0-43" value="CodeDeploy&amp;nbsp;In-Place Deployment" style="text;html=1;strokeColor=none;fillColor=none;align=center;verticalAlign=middle;whiteSpace=wrap;rounded=0;fontSize=30;fontStyle=1" parent="1" vertex="1">
          <mxGeometry x="230" y="220" width="830" height="30" as="geometry" />
        </mxCell>
        <mxCell id="HZa0m9FP3mSwSl7YWpL0-45" style="edgeStyle=orthogonalEdgeStyle;rounded=0;orthogonalLoop=1;jettySize=auto;html=1;entryX=0;entryY=0.5;entryDx=0;entryDy=0;entryPerimeter=0;" parent="1" source="HZa0m9FP3mSwSl7YWpL0-44" target="HZa0m9FP3mSwSl7YWpL0-17" edge="1">
          <mxGeometry relative="1" as="geometry">
            <Array as="points">
              <mxPoint x="190" y="428" />
              <mxPoint x="190" y="367" />
            </Array>
          </mxGeometry>
        </mxCell>
        <mxCell id="HZa0m9FP3mSwSl7YWpL0-46" style="edgeStyle=orthogonalEdgeStyle;rounded=0;orthogonalLoop=1;jettySize=auto;html=1;entryX=0;entryY=0.5;entryDx=0;entryDy=0;entryPerimeter=0;" parent="1" source="HZa0m9FP3mSwSl7YWpL0-44" target="HZa0m9FP3mSwSl7YWpL0-29" edge="1">
          <mxGeometry relative="1" as="geometry">
            <Array as="points">
              <mxPoint x="190" y="428" />
              <mxPoint x="190" y="487" />
            </Array>
          </mxGeometry>
        </mxCell>
        <mxCell id="HZa0m9FP3mSwSl7YWpL0-44" value="Half" style="text;html=1;align=center;verticalAlign=middle;resizable=0;points=[];autosize=1;strokeColor=none;fillColor=none;" parent="1" vertex="1">
          <mxGeometry x="90" y="413" width="40" height="30" as="geometry" />
        </mxCell>
        <mxCell id="HZa0m9FP3mSwSl7YWpL0-67" style="edgeStyle=orthogonalEdgeStyle;rounded=0;orthogonalLoop=1;jettySize=auto;html=1;entryX=0;entryY=0.5;entryDx=0;entryDy=0;entryPerimeter=0;" parent="1" source="HZa0m9FP3mSwSl7YWpL0-49" target="HZa0m9FP3mSwSl7YWpL0-60" edge="1">
          <mxGeometry relative="1" as="geometry" />
        </mxCell>
        <mxCell id="HZa0m9FP3mSwSl7YWpL0-49" value="v2" style="outlineConnect=0;dashed=0;verticalLabelPosition=bottom;verticalAlign=top;align=center;html=1;shape=mxgraph.aws3.ec2;fillColor=#33FF33;gradientColor=none;" parent="1" vertex="1">
          <mxGeometry x="788.5" y="320" width="76.5" height="93" as="geometry" />
        </mxCell>
        <mxCell id="HZa0m9FP3mSwSl7YWpL0-66" style="edgeStyle=orthogonalEdgeStyle;rounded=0;orthogonalLoop=1;jettySize=auto;html=1;entryX=0;entryY=0.5;entryDx=0;entryDy=0;entryPerimeter=0;" parent="1" source="HZa0m9FP3mSwSl7YWpL0-51" target="HZa0m9FP3mSwSl7YWpL0-61" edge="1">
          <mxGeometry relative="1" as="geometry" />
        </mxCell>
        <mxCell id="HZa0m9FP3mSwSl7YWpL0-51" value="v2" style="outlineConnect=0;dashed=0;verticalLabelPosition=bottom;verticalAlign=top;align=center;html=1;shape=mxgraph.aws3.ec2;fillColor=#33FF33;gradientColor=none;" parent="1" vertex="1">
          <mxGeometry x="788.5" y="440" width="76.5" height="93" as="geometry" />
        </mxCell>
        <mxCell id="HZa0m9FP3mSwSl7YWpL0-65" style="edgeStyle=orthogonalEdgeStyle;rounded=0;orthogonalLoop=1;jettySize=auto;html=1;entryX=0;entryY=0.5;entryDx=0;entryDy=0;entryPerimeter=0;" parent="1" source="HZa0m9FP3mSwSl7YWpL0-53" target="HZa0m9FP3mSwSl7YWpL0-62" edge="1">
          <mxGeometry relative="1" as="geometry" />
        </mxCell>
        <mxCell id="HZa0m9FP3mSwSl7YWpL0-53" value="v1" style="outlineConnect=0;dashed=0;verticalLabelPosition=bottom;verticalAlign=top;align=center;html=1;shape=mxgraph.aws3.ec2;fillColor=#A3A3A3;gradientColor=none;" parent="1" vertex="1">
          <mxGeometry x="791.75" y="560" width="76.5" height="93" as="geometry" />
        </mxCell>
        <mxCell id="HZa0m9FP3mSwSl7YWpL0-64" style="edgeStyle=orthogonalEdgeStyle;rounded=0;orthogonalLoop=1;jettySize=auto;html=1;entryX=0;entryY=0.5;entryDx=0;entryDy=0;entryPerimeter=0;" parent="1" source="HZa0m9FP3mSwSl7YWpL0-55" target="HZa0m9FP3mSwSl7YWpL0-63" edge="1">
          <mxGeometry relative="1" as="geometry" />
        </mxCell>
        <mxCell id="HZa0m9FP3mSwSl7YWpL0-55" value="v1" style="outlineConnect=0;dashed=0;verticalLabelPosition=bottom;verticalAlign=top;align=center;html=1;shape=mxgraph.aws3.ec2;fillColor=#a3a3a3;gradientColor=none;" parent="1" vertex="1">
          <mxGeometry x="791.75" y="680" width="76.5" height="93" as="geometry" />
        </mxCell>
        <mxCell id="HZa0m9FP3mSwSl7YWpL0-60" value="v2" style="outlineConnect=0;dashed=0;verticalLabelPosition=bottom;verticalAlign=top;align=center;html=1;shape=mxgraph.aws3.ec2;fillColor=#33FF33;gradientColor=none;" parent="1" vertex="1">
          <mxGeometry x="970.75" y="320" width="76.5" height="93" as="geometry" />
        </mxCell>
        <mxCell id="HZa0m9FP3mSwSl7YWpL0-61" value="v2" style="outlineConnect=0;dashed=0;verticalLabelPosition=bottom;verticalAlign=top;align=center;html=1;shape=mxgraph.aws3.ec2;fillColor=#33FF33;gradientColor=none;" parent="1" vertex="1">
          <mxGeometry x="969.13" y="440" width="76.5" height="93" as="geometry" />
        </mxCell>
        <mxCell id="HZa0m9FP3mSwSl7YWpL0-62" value="v2" style="outlineConnect=0;dashed=0;verticalLabelPosition=bottom;verticalAlign=top;align=center;html=1;shape=mxgraph.aws3.ec2;fillColor=#33ff33;gradientColor=none;" parent="1" vertex="1">
          <mxGeometry x="972.38" y="560" width="76.5" height="93" as="geometry" />
        </mxCell>
        <mxCell id="HZa0m9FP3mSwSl7YWpL0-63" value="v2" style="outlineConnect=0;dashed=0;verticalLabelPosition=bottom;verticalAlign=top;align=center;html=1;shape=mxgraph.aws3.ec2;fillColor=#33ff33;gradientColor=none;" parent="1" vertex="1">
          <mxGeometry x="972.38" y="680" width="76.5" height="93" as="geometry" />
        </mxCell>
        <mxCell id="cf14auBmGyYl9YptXVwd-1" value="Other half" style="rounded=1;arcSize=10;dashed=1;strokeColor=#FF3333;fillColor=none;gradientColor=none;dashPattern=8 4;strokeWidth=2;verticalAlign=bottom;fontStyle=1;fontSize=16;fontColor=#FF3333;" vertex="1" parent="1">
          <mxGeometry x="759.13" y="558" width="141.75" height="272" as="geometry" />
        </mxCell>
      </root>
    </mxGraphModel>
  </diagram>
</mxfile>
